<svg xmlns="http://www.w3.org/2000/svg" style="isolation:isolate" viewBox="0 0 250 250">
  <path d="M147.618 40.184L125 79.359l-22.617-39.175h-75.32L125 209.816l97.937-169.632h-75.319z" fill="#389BD6"/>
  <path d="M147.618 40.184L125 79.359l-22.617-39.175H66.238L125 141.964l58.762-101.78h-36.144z" fill="#1C3E91"/>
  <g class="pulse">
    <path
      d="M203.304 149.165a19.01 19.01 0 0 1-5.919 13.807l-26.977 27.083-26.981-27.075a19.004 19.004 0 0 1-5.921-13.815c0-10.542 8.547-19.091 19.081-19.091 5.436 0 10.34 2.273 13.821 5.915a19.015 19.015 0 0 1 13.81-5.915c10.544 0 19.086 8.548 19.086 19.091z"
      fill="#E20717"/>
    <path
      d="M184.218 130.074c10.543 0 19.086 8.548 19.086 19.091a19.01 19.01 0 0 1-5.919 13.807l-26.977 27.083-26.981-27.075a19.004 19.004 0 0 1-5.921-13.815c0-10.542 8.547-19.091 19.081-19.091 5.436 0 10.34 2.273 13.821 5.915a19.011 19.011 0 0 1 13.81-5.915zm0-2.827c-5.115 0-9.928 1.721-13.813 4.895-3.894-3.175-8.709-4.895-13.818-4.895-12.081 0-21.909 9.833-21.909 21.918 0 6.045 2.405 11.668 6.772 15.838l26.955 27.049 2.003 2.01 2.004-2.011 26.951-27.058c4.365-4.172 6.769-9.793 6.769-15.828.001-12.085-9.83-21.918-21.914-21.918z"
      fill="#FFF"/>
    <path
      d="M203.296 149.169c0 4.953-1.896 9.488-5.028 12.891l-27.874 27.993v-29.982l25.703-25.809a18.95 18.95 0 0 1 7.199 14.907z"
      fill="#9B4D16" opacity=".6"/>
    <path d="M170.395 135.994v24.077l-25.718-25.825a19.034 19.034 0 0 1 11.893-4.171 19.056 19.056 0 0 1 13.825 5.919z"
          fill="#9B4D16" opacity=".6"/>
    <path
      d="M156.282 162.511l1.669-2.932c.698.674 1.613 1.29 2.852 1.29 1.693 0 2.799-1.128 2.799-2.878v-12h3.821v12.055c0 4.25-2.639 6.215-6.324 6.215-1.802-.001-3.527-.487-4.817-1.75zM169.758 161.407l2.07-2.906a7.878 7.878 0 0 0 5.706 2.422c2.097 0 3.121-.968 3.121-1.991 0-3.175-10.333-.994-10.333-7.748 0-2.988 2.584-5.463 6.81-5.463 2.849 0 5.217.86 6.993 2.502L182 151.024c-1.454-1.349-3.388-1.967-5.218-1.967-1.642 0-2.556.728-2.556 1.804 0 2.852 10.302.94 10.302 7.64 0 3.283-2.342 5.758-7.182 5.758-3.444.001-5.92-1.156-7.588-2.852z"
      fill="#FFF"/>
  </g>
</svg>
