<?xml version="1.0" encoding="utf-8"?>
<!-- Generator: Adobe Illustrator 16.0.0, SVG Export Plug-In . SVG Version: 6.00 Build 0)  -->
<!DOCTYPE svg PUBLIC "-//W3C//DTD SVG 1.1//EN" "http://www.w3.org/Graphics/SVG/1.1/DTD/svg11.dtd">
<svg version="1.1" id="Layer_1" xmlns="http://www.w3.org/2000/svg" xmlns:xlink="http://www.w3.org/1999/xlink" x="0px" y="0px"
	 viewBox="0 0 205.266 179.407" enable-background="new 0 0 205.266 179.407"
	 xml:space="preserve">
<g>
	<polygon fill="#389BD6" points="125.303,4.694 102.634,43.958 79.965,4.694 4.474,4.694 102.634,174.712 200.793,4.694 	"/>
	<polygon fill="#1C3E91" points="125.303,4.694 102.634,43.958 79.965,4.694 43.738,4.694 102.634,106.706 161.529,4.694 	"/>
	<g>
		<g>
			<path fill="#E20717" d="M181.116,113.923c0,5.443-2.277,10.355-5.933,13.838c-0.059,0.059-27.038,27.145-27.038,27.145
				s-26.987-27.082-27.043-27.137c-3.661-3.484-5.934-8.398-5.934-13.846c0-10.566,8.566-19.134,19.124-19.134
				c5.449,0,10.364,2.278,13.853,5.928c3.475-3.649,8.391-5.928,13.841-5.928C172.554,94.789,181.116,103.356,181.116,113.923z"/>
			<path fill="#FFFFFF" d="M161.986,94.789c10.567,0,19.13,8.567,19.13,19.134c0,5.443-2.277,10.355-5.933,13.838
				c-0.059,0.059-27.038,27.145-27.038,27.145s-26.987-27.082-27.043-27.137c-3.661-3.484-5.934-8.398-5.934-13.846
				c0-10.566,8.566-19.134,19.124-19.134c5.449,0,10.364,2.278,13.853,5.928C151.62,97.067,156.536,94.789,161.986,94.789
				 M161.986,91.955c-5.126,0-9.95,1.725-13.844,4.906c-3.903-3.182-8.729-4.906-13.85-4.906c-12.108,0-21.958,9.855-21.958,21.968
				c0,6.059,2.41,11.694,6.787,15.874c0.876,0.878,26.751,26.844,27.016,27.11l2.008,2.015l2.008-2.016
				c0,0,26.11-26.213,27.013-27.119c4.375-4.182,6.784-9.815,6.784-15.864C183.951,101.81,174.098,91.955,161.986,91.955
				L161.986,91.955z"/>
		</g>
		<path opacity="0.6" fill="#9B4D16" d="M181.108,113.927c0,4.964-1.901,9.51-5.04,12.92l-27.937,28.057v-30.05l25.761-25.868
			C178.3,102.472,181.108,107.875,181.108,113.927z"/>
		<path opacity="0.6" fill="#9B4D16" d="M148.132,100.722v24.132L122.355,98.97c3.274-2.611,7.425-4.18,11.92-4.18
			C139.726,94.79,144.646,97.069,148.132,100.722z"/>
		<g>
			<path fill="#FFFFFF" d="M133.987,127.299l1.672-2.938c0.7,0.675,1.617,1.293,2.859,1.293c1.697,0,2.805-1.131,2.805-2.885
				v-12.027h3.83v12.082c0,4.26-2.645,6.229-6.338,6.229C137.008,129.052,135.28,128.565,133.987,127.299z"/>
			<path fill="#FFFFFF" d="M147.493,126.193l2.075-2.913c1.268,1.32,3.237,2.428,5.719,2.428c2.102,0,3.128-0.971,3.128-1.996
				c0-3.182-10.356-0.996-10.356-7.765c0-2.995,2.589-5.476,6.825-5.476c2.856,0,5.229,0.862,7.009,2.508l-2.13,2.807
				c-1.457-1.352-3.396-1.971-5.23-1.971c-1.645,0-2.562,0.729-2.562,1.808c0,2.858,10.326,0.942,10.326,7.657
				c0,3.291-2.347,5.771-7.198,5.771C151.647,129.052,149.165,127.893,147.493,126.193z"/>
		</g>
	</g>
</g>
</svg>
